<svg width="227" height="216" viewBox="0 0 227 216" fill="none" xmlns="http://www.w3.org/2000/svg">
<g clip-path="url(#clip0_2_2)" filter="url(#filter0_i_2_2)">
<path d="M213.666 54.6755C211.141 50.1756 208.414 45.8227 205.307 41.7982C202.237 37.7542 198.954 33.917 195.383 30.4324C193.659 28.6315 191.757 27.0258 189.942 25.357L187.087 23.014C186.609 22.6292 186.143 22.2319 185.658 21.8586L184.181 20.7698C180.304 17.7974 176.167 15.2764 172.024 12.9276C169.899 11.8331 167.854 10.6822 165.642 9.72436C164.56 9.23738 163.464 8.70561 162.404 8.26343L159.256 7.01383L157.607 6.36721L155.967 5.81017L152.705 4.70413L149.414 3.76693C148.321 3.45683 147.237 3.13754 146.131 2.90783L142.845 2.16014C141.757 1.90172 140.646 1.75701 139.556 1.55142C138.459 1.37569 137.379 1.13795 136.283 1.01735L133.017 0.617664C131.936 0.463761 130.848 0.399443 129.767 0.32364L126.541 0.0973797L123.333 0.030765C122.27 0.00664586 121.211 -0.0232159 120.157 0.0284679C112.038 0.181294 103.965 1.26533 96.0937 3.25928C81.041 7.23435 68.2292 13.8533 58.2094 21.3682C53.5215 24.865 49.1229 28.7339 45.0564 32.9373C44.0779 33.8722 43.2303 34.8955 42.3402 35.8373L41.0412 37.2558C40.6231 37.7324 40.2315 38.2228 39.8329 38.6983L37.5198 41.4984L35.4455 44.2607C30.1026 51.4826 26.843 57.7708 24.8182 62.1272C23.7363 64.2807 23.1172 66.0035 22.613 67.1348L21.8883 68.8622L21.8848 68.8702L21.2256 70.6309C20.8167 71.8013 20.0805 73.4942 19.396 75.7959C17.888 80.3452 15.9481 87.1651 14.888 96.0835L14.5044 99.5164L14.2689 103.14C14.2345 103.759 14.1828 104.384 14.1598 105.018L14.1334 106.942C14.1357 108.237 14.0519 109.564 14.1231 110.916C14.1977 116.325 14.6858 122.182 15.7724 128.354C17.2195 136.698 19.9473 145.615 24.0866 154.599C24.9813 155.128 25.8645 155.678 26.7397 156.243C21.8205 146.71 18.6414 137.087 16.9243 128.133C14.5434 115.947 14.7077 105.003 15.7172 96.1788C16.7142 87.3248 18.5977 80.5381 20.069 76.0095C20.7352 73.717 21.4564 72.0321 21.8561 70.8664L22.4993 69.1149L23.2332 67.3967C23.742 66.2734 24.3783 64.538 25.4614 62.4201C27.4897 58.1257 30.7733 51.8858 36.1174 44.7591C41.4328 37.6428 48.8156 29.5618 58.902 22.3226C70.192 14.1816 82.9882 8.36718 96.5462 5.21753C104.287 3.46934 112.202 2.61538 120.137 2.67238C121.165 2.64712 122.195 2.70454 123.229 2.75508L126.345 2.89864L129.475 3.20071C130.522 3.30063 131.575 3.39022 132.622 3.56824L135.78 4.03799C136.84 4.1804 137.883 4.44112 138.94 4.63752C139.992 4.86493 141.061 5.03032 142.108 5.30941L145.27 6.11568C146.334 6.36261 147.377 6.70143 148.425 7.02876L151.581 8.01535L154.705 9.16617L156.274 9.74388C156.772 9.93913 157.302 10.178 157.815 10.394L160.927 11.7262C161.957 12.188 162.953 12.7082 163.973 13.1998C166.024 14.1473 167.986 15.32 169.995 16.4191C173.918 18.7817 177.822 21.2958 181.459 24.2383L182.846 25.3157C183.3 25.6855 183.737 26.0771 184.185 26.4573L186.857 28.7658C188.55 30.4094 190.327 31.9817 191.928 33.7459C195.251 37.1559 198.284 40.8932 201.106 44.8143C203.965 48.7147 206.446 52.9194 208.733 57.2459C213.304 66.0459 216.597 75.453 218.511 85.1828C220.456 95.0663 220.969 105.178 220.034 115.208L219.628 118.978C219.457 120.23 219.241 121.479 219.051 122.729C218.946 123.353 218.866 123.982 218.743 124.603L218.356 126.462C218.081 127.698 217.875 128.951 217.545 130.174C216.371 135.1 214.752 139.942 212.958 144.651C211.006 149.393 208.89 153.959 206.362 158.368C205.763 159.485 205.055 160.539 204.407 161.627L203.415 163.246C203.079 163.782 202.706 164.295 202.355 164.821C201.637 165.862 200.938 166.918 200.204 167.948L197.914 170.971C191.719 178.913 184.414 185.923 176.223 191.786C168.159 197.558 159.314 202.15 149.953 205.424C145.321 207.005 140.631 208.365 135.876 209.246C131.134 210.166 126.363 210.807 121.607 211.012C119.232 211.2 116.86 211.126 114.501 211.162L110.973 211.009C110.387 210.979 109.8 210.965 109.216 210.923L107.468 210.756C102.802 210.405 98.2357 209.559 93.7599 208.589C91.5432 208.012 89.3139 207.522 87.1627 206.803C86.0831 206.461 84.9943 206.155 83.9307 205.785L80.7665 204.626C80.2474 204.432 79.7018 204.245 79.2057 204.048L77.6598 203.389L74.5828 202.079L71.615 200.636C70.6296 200.158 69.6419 199.69 68.6966 199.14L65.8425 197.56C64.8881 197.045 63.9957 196.432 63.0746 195.876C62.1695 195.294 61.2312 194.77 60.3617 194.147L57.7408 192.323C56.8576 191.735 56.0295 191.08 55.1979 190.434L52.7114 188.508L50.3431 186.476C49.5552 185.804 48.7662 185.139 48.0346 184.417C46.912 183.371 45.8134 182.3 44.7394 181.204C43.2153 179.39 41.7751 177.553 40.3716 175.952C37.7851 173.004 35.0964 169.963 32.8326 166.67C30.4735 164.876 27.956 163.384 25.2029 162.361C14.8398 158.493 2.68486 161.366 0.357935 173.242C-1.98392 185.122 7.55003 195.71 17.7513 191.608C27.9606 187.497 21.1693 177.141 21.1693 177.141C11.1943 189.399 -1.64395 177.088 5.98688 167.736C13.6235 158.376 27.6528 167.862 33.6435 174.583C39.6354 181.312 43.2452 194.007 59.7588 203.592C67.7548 208.229 74.9297 208.884 80.2095 208.329L82.719 209.321C83.8124 209.732 84.9322 210.08 86.044 210.463C88.2595 211.265 90.5589 211.836 92.8502 212.494C97.4765 213.623 102.215 214.623 107.074 215.116L108.894 215.334C109.503 215.395 110.114 215.426 110.727 215.472L114.41 215.724C116.875 215.752 119.359 215.887 121.849 215.757C126.836 215.666 131.855 215.124 136.861 214.283C141.88 213.483 146.846 212.183 151.769 210.637C161.593 207.462 171.039 202.705 179.735 196.705L182.97 194.406L186.101 191.951C187.162 191.151 188.147 190.259 189.157 189.394C190.157 188.516 191.19 187.672 192.136 186.732L195.01 183.946L197.749 181.021C198.68 180.061 199.53 179.026 200.396 178.006C201.251 176.976 202.157 175.984 202.951 174.904L205.398 171.711C206.184 170.623 206.933 169.509 207.7 168.406C208.078 167.852 208.474 167.308 208.835 166.741L209.899 165.03C210.594 163.88 211.349 162.764 211.993 161.584L213.95 158.056C214.607 156.888 215.184 155.6 215.802 154.376L216.711 152.515C217.017 151.893 217.231 151.334 217.496 150.74L219.014 147.225L219.424 146.144L219.77 145.196L220.458 143.298C220.939 142.042 221.333 140.754 221.722 139.467C222.103 138.176 222.547 136.906 222.871 135.599L223.864 131.688C224.204 130.387 224.42 129.057 224.701 127.743L225.1 125.767C225.226 125.108 225.31 124.441 225.416 123.777C225.612 122.448 225.83 121.124 226.004 119.794L226.412 115.791C226.576 114.46 226.594 113.117 226.679 111.782C226.747 110.445 226.839 109.109 226.819 107.771L226.83 103.763L226.653 99.7634C226.626 98.4299 226.446 97.1068 226.32 95.7826C226.178 94.4595 226.073 93.1341 225.848 91.8236L225.25 87.8899L224.471 83.9975C222.254 73.6676 218.617 63.7374 213.666 54.6755Z" fill="#37323E"/>
<path d="M128.974 83.7105C131.399 82.9636 133.751 82.4473 135.922 82.0946C135.827 78.178 135.306 74.9412 134.929 73.0814C133.375 73.6566 130.865 74.6922 128.015 76.2491C128.488 78.0926 128.809 80.0103 128.926 81.9839C128.962 82.5621 128.977 83.1373 128.974 83.7105Z" fill="#709255"/>
<path d="M138.123 98.8792C140.461 94.1567 141.752 89.5134 142.376 86.3609C133.803 86.7308 115.275 84.7888 108.9 109.936C108.471 111.628 107.685 114.002 107.048 115.809C109.012 115.537 128.016 119.3 138.123 98.8792Z" fill="#709255"/>
<path d="M142.01 98.3802C141.712 99.0418 141.398 99.7075 141.058 100.374C137.308 107.742 132.193 112.88 125.786 115.752C144.103 117.873 159.512 106.546 159.512 106.546C159.512 106.546 152.322 101.115 142.01 98.3802Z" fill="#709255"/>
<path d="M111.21 94.9981C114.57 90.9544 118.954 87.7512 124.343 85.4168C124.775 85.2298 125.205 85.053 125.634 84.8843C125.686 83.9951 125.692 83.0987 125.639 82.1953C124.941 70.2715 115.61 60.2135 112.382 57.0733C110.33 59.1241 105.786 64.0875 102.67 70.5977C100.218 75.7227 99.1435 80.6709 99.4351 85.4188C104.311 87.8091 108.244 91.0124 111.21 94.9981Z" fill="#709255"/>
<path d="M83.2938 99.5215C83.2197 99.3792 83.1505 99.24 83.0794 99.0988C73.9808 102.006 74.4595 101.7 68.0489 106.546C68.0489 106.546 82.9493 117.499 100.859 115.85C93.4493 113.06 87.553 107.585 83.2938 99.5215Z" fill="#709255"/>
<path d="M81.7705 85.7003C82.4534 88.7949 83.7705 93.368 86.2064 97.9809C90.492 106.096 96.5591 111.311 104.254 113.502C104.432 113.01 105.473 104.72 109.262 98.3792C103.169 87.3284 88.5083 85.8477 81.7705 85.7003Z" fill="#709255"/>
<path d="M97.053 76.4574C94.0428 74.7786 91.3782 73.68 89.7532 73.0794C89.3873 74.9046 88.8792 78.053 88.7674 81.8579C91.1282 82.3406 93.6272 83.0225 96.1313 83.9818C96.1211 81.5113 96.4229 78.9991 97.053 76.4574Z" fill="#709255"/>
<path d="M49.5217 135.116C49.6351 134.833 50.0035 134.691 50.6554 134.691C50.9955 134.691 51.3073 134.748 51.5907 134.861C51.8741 135.003 51.9875 135.201 51.9025 135.428C49.9752 141.068 48.5864 146.737 47.6794 152.603C47.5944 153.142 46.8575 153.199 46.4324 153.199C46.0072 153.199 45.327 153.142 45.242 152.603C44.8168 146.963 43.173 141.777 40.3104 137.043C40.1687 136.845 40.2537 136.675 40.5655 136.533C40.8489 136.42 41.189 136.363 41.5575 136.363C42.1527 136.363 42.5211 136.505 42.6628 136.76C44.335 139.481 45.6388 142.485 46.5174 145.773C47.396 142.145 48.303 138.659 49.5217 135.116ZM65.7052 144.639C65.8186 147.7 65.5918 150.79 64.9967 153.879C64.9116 154.417 64.1747 154.446 63.7496 154.446C63.4662 154.446 63.1827 154.389 62.8993 154.304C62.6442 154.191 62.5309 154.049 62.5592 153.879L62.6726 153.255L62.7576 152.632C61.7656 153.34 60.2918 153.68 59.0731 153.68C58.2228 153.68 57.3725 153.51 56.5223 153.142C55.7003 152.774 55.1051 152.178 54.7934 151.3C54.5383 150.591 54.4533 149.826 54.5383 149.004C54.7084 147.388 55.3319 146 56.4089 144.809C57.5143 143.591 58.8747 142.995 60.5469 142.995C61.5105 142.995 62.4175 143.222 63.2394 143.647C63.1544 141.748 62.3608 136.505 59.7533 136.505C58.0811 136.505 55.8137 138.772 55.672 140.445C55.587 140.983 54.8501 141.04 54.4249 141.04C54.1132 141.04 53.8297 140.983 53.5747 140.87C53.3196 140.785 53.1779 140.643 53.2062 140.445C53.4329 137.667 57.2308 135.23 59.9234 135.23C64.6565 135.23 65.6202 140.898 65.7052 144.639ZM57.1175 150.846C57.4292 151.782 58.0811 152.49 59.1014 152.49C61.6239 152.49 62.9843 149.769 63.0694 147.559C63.0694 146.85 62.871 146.085 62.4458 145.319C62.049 144.554 61.4255 144.157 60.5752 144.157C58.733 144.157 57.656 146.567 57.2025 148.04C56.8907 149.061 56.8624 149.996 57.1175 150.846ZM83.6743 135.683C85.2898 135.938 85.8567 137.27 86.1118 138.716C86.2535 139.481 86.3102 140.275 86.2818 141.068C86.2535 141.862 86.2535 142.542 86.2535 143.08L86.1684 148.465L86.0551 153.822C86.0551 154.361 85.2048 154.417 84.8364 154.417C84.4679 154.417 83.6176 154.361 83.6176 153.822L83.7593 145.745L83.8444 141.862C83.8727 140.558 83.731 139.283 83.4192 138.035L83.2208 137.242C83.1642 137.043 83.0508 136.958 82.8807 136.958C82.8524 136.958 82.7107 137.015 82.4556 137.1C80.6133 138.177 79.4513 142.882 79.2246 144.809C79.0545 146.028 78.9978 147.303 79.0262 148.636C79.0545 148.919 78.7994 149.117 78.2326 149.202C78.0342 149.259 77.8074 149.287 77.4957 149.287C77.1556 149.287 76.3053 149.202 76.3053 148.721C76.3336 147.473 76.362 146.226 76.447 144.979C76.4753 143.761 76.4753 142.514 76.447 141.266L76.3903 139.623C76.362 138.829 76.1919 137.894 75.7668 137.185C75.6534 136.93 75.5684 136.788 75.4833 136.788C75.455 136.788 75.3983 136.845 75.37 136.958C75.285 136.987 75.1149 137.129 74.8598 137.412C73.7545 138.631 72.9325 139.793 72.3657 140.898C71.8272 142.003 71.402 143.364 71.1186 144.979C70.6368 147.587 70.6085 150.251 70.6085 152.859C70.6085 153.397 69.7582 153.454 69.3897 153.454C69.0213 153.454 68.171 153.34 68.171 152.859V149.911C68.171 149.599 68.171 149.429 68.1993 149.344C68.2844 144.668 68.3694 140.104 68.5961 135.428C68.5961 134.946 69.4464 134.833 69.8149 134.833C70.1266 134.833 70.4101 134.889 70.6935 134.974C70.9486 135.06 71.0619 135.23 71.0336 135.428L70.9486 137.242L70.8919 139.056C71.402 138.206 72.0539 137.44 72.8758 136.732C73.6978 136.023 74.6331 135.655 75.6817 135.655C76.447 135.655 77.0989 135.91 77.609 136.42C78.0909 136.958 78.431 137.639 78.6294 138.432C79.6213 136.76 80.9251 135.626 82.9374 135.626C82.9658 135.626 83.2208 135.655 83.6743 135.683ZM99.5177 140.813C99.6594 141.975 99.7161 143.08 99.6311 144.101C99.4894 146.141 99.3193 148.239 98.4407 150.138C97.6471 151.867 95.8332 153.029 93.9059 153.029C92.7439 153.029 91.6952 152.688 90.7599 151.98C89.8246 151.271 89.2294 150.336 88.9177 149.202C88.6342 148.154 88.5209 147.077 88.6059 146C88.8326 142.372 89.3428 135.938 94.246 135.938C95.7198 135.938 96.9102 136.392 97.8172 137.327C98.7525 138.262 99.3193 139.424 99.5177 140.813ZM97.1086 145.518L97.1653 143.364C97.1936 142.599 97.1653 141.833 97.137 141.011C97.0803 140.189 96.8252 139.368 96.3434 138.574C95.8899 137.752 95.1813 137.355 94.2177 137.355C93.9059 137.355 93.5375 137.525 93.169 137.837C91.5818 140.076 91.2984 142.769 91.1 145.404C91.0717 146.141 91.0717 146.878 91.1 147.644C91.1567 149.032 91.6385 150.223 92.5171 151.158C92.9139 151.583 93.3674 151.81 93.8492 151.81C94.1043 151.81 94.3877 151.725 94.6428 151.583C95.5781 150.988 96.23 150.081 96.5418 148.891C96.8819 147.7 97.0803 146.567 97.1086 145.518ZM111.62 148.636C111.818 150.194 111.393 151.356 110.345 152.122C109.296 152.887 108.105 153.284 106.773 153.284C105.781 153.284 104.818 153.057 103.854 152.603C102.919 152.122 102.295 151.385 101.984 150.364C101.785 149.684 101.757 148.947 101.955 148.125C102.097 147.644 102.862 147.53 103.287 147.53C103.599 147.53 103.939 147.587 104.251 147.672C104.506 147.785 104.619 147.927 104.591 148.125C104.506 148.437 104.506 148.834 104.534 149.344C104.563 149.939 104.761 150.563 105.073 151.186C105.413 151.81 105.951 152.122 106.66 152.122H106.802C107.595 152.093 108.162 151.753 108.474 151.101C108.786 150.449 108.984 149.769 109.012 149.117C109.012 147.814 108.559 146.765 107.68 145.971C106.802 145.178 105.866 144.526 104.818 143.987C104.194 143.647 103.627 143.307 103.146 142.967C102.607 142.599 102.21 142.088 101.984 141.437C101.728 140.756 101.728 140.048 101.955 139.339C102.267 138.177 103.004 137.1 104.109 136.165C105.243 135.201 106.433 134.719 107.68 134.719C109.381 134.719 110.911 135.683 111.337 137.384C111.507 138.234 111.592 138.971 111.62 139.566C111.62 139.764 111.478 139.934 111.223 140.019C110.94 140.133 110.628 140.189 110.316 140.189C110.004 140.189 109.693 140.133 109.438 140.019C109.154 139.934 109.012 139.764 109.012 139.566C108.984 139.368 108.984 139.056 108.956 138.687C108.927 138.404 108.871 138.035 108.757 137.554C108.644 137.157 108.502 136.817 108.332 136.562C108.134 136.307 107.879 136.165 107.595 136.165C107.255 136.165 106.915 136.335 106.547 136.647C105.498 137.639 104.818 138.489 104.478 139.934C104.251 140.87 104.534 141.663 105.328 142.315C105.923 142.854 106.603 143.25 107.34 143.562C108.361 144.044 109.296 144.696 110.146 145.575C110.996 146.453 111.478 147.473 111.62 148.636ZM130.949 135.116C131.063 134.833 131.431 134.691 132.083 134.691C132.423 134.691 132.735 134.748 133.018 134.861C133.302 135.003 133.415 135.201 133.33 135.428C131.403 141.068 130.014 146.737 129.107 152.603C129.022 153.142 128.285 153.199 127.86 153.199C127.435 153.199 126.755 153.142 126.67 152.603C126.245 146.963 124.601 141.777 121.738 137.043C121.596 136.845 121.682 136.675 121.993 136.533C122.277 136.42 122.617 136.363 122.985 136.363C123.58 136.363 123.949 136.505 124.091 136.76C125.763 139.481 127.067 142.485 127.945 145.773C128.824 142.145 129.731 138.659 130.949 135.116ZM143.477 149.061C143.647 148.806 144.015 148.692 144.582 148.692C144.951 148.692 145.291 148.749 145.603 148.862C145.914 148.976 145.971 149.146 145.829 149.344C145.177 150.364 144.384 151.328 143.42 152.207C142.542 153.029 141.408 153.425 139.991 153.425C138.233 153.425 136.93 152.859 136.108 151.697C135.286 150.534 134.861 149.174 134.832 147.615C134.804 146.68 134.861 145.801 135.031 144.923C135.654 141.72 137.497 135.258 141.663 135.258C143.392 135.258 144.525 136.023 145.064 137.582C145.262 138.234 145.319 138.971 145.234 139.736C144.696 143.506 140.954 145.858 137.355 145.943C137.27 146.765 137.27 147.587 137.355 148.409C137.44 149.117 137.667 149.911 138.035 150.761C138.404 151.611 139.027 152.093 139.877 152.178C140.784 152.178 141.521 151.81 142.06 151.045C142.598 150.336 143.052 149.684 143.477 149.061ZM139.566 138.971L139.14 139.793C138.347 141.408 137.808 143.08 137.497 144.809C138.772 144.668 139.877 144.157 140.813 143.279C141.776 142.4 142.428 141.323 142.74 140.104C142.938 139.368 142.967 138.687 142.853 138.092C142.825 137.809 142.683 137.469 142.457 137.072C142.258 136.647 141.975 136.448 141.635 136.448C141.238 136.477 140.841 136.817 140.416 137.469C140.019 138.092 139.736 138.602 139.566 138.971ZM158.47 135.881V135.91C158.555 135.995 158.583 136.08 158.583 136.165L158.498 140.303L158.413 144.441C158.385 145.603 158.385 146.822 158.385 148.069C158.357 149.628 157.903 151.016 157.025 152.235C156.174 153.454 154.927 154.049 153.255 154.049C151.129 154.049 149.202 152.887 148.068 151.158C147.927 150.96 148.012 150.79 148.323 150.676C148.607 150.563 148.947 150.506 149.315 150.506C149.911 150.506 150.279 150.619 150.449 150.875C151.044 151.782 151.838 152.859 153.057 152.859C154.502 152.859 155.607 150.619 155.749 149.372C155.834 148.579 155.891 147.785 155.919 146.992L155.976 145.716V144.498C154.927 145.49 153.312 146.028 151.866 146.028C149.967 146.028 148.097 145.149 147.501 143.25C147.275 142.57 147.218 141.805 147.303 140.926C147.615 137.809 149.882 134.634 153.227 134.634C154.389 134.634 155.352 134.946 156.174 135.57C156.373 135.371 156.713 135.286 157.223 135.286C157.648 135.286 158.385 135.343 158.47 135.881ZM150.166 143.676C150.619 144.441 151.186 144.838 151.838 144.838C153.765 144.838 155.097 142.485 155.551 140.813C155.692 140.246 155.834 139.651 155.919 139.056C155.551 138.914 155.381 138.744 155.381 138.546C155.324 137.95 155.126 137.327 154.785 136.732C154.474 136.108 153.964 135.796 153.255 135.796C151.469 135.796 150.166 139.254 149.797 140.7C149.542 141.748 149.655 142.74 150.166 143.676ZM172.925 144.639C173.038 147.7 172.811 150.79 172.216 153.879C172.131 154.417 171.394 154.446 170.969 154.446C170.686 154.446 170.402 154.389 170.119 154.304C169.864 154.191 169.75 154.049 169.779 153.879L169.892 153.255L169.977 152.632C168.985 153.34 167.511 153.68 166.292 153.68C165.442 153.68 164.592 153.51 163.742 153.142C162.92 152.774 162.325 152.178 162.013 151.3C161.758 150.591 161.673 149.826 161.758 149.004C161.928 147.388 162.551 146 163.628 144.809C164.734 143.591 166.094 142.995 167.766 142.995C168.73 142.995 169.637 143.222 170.459 143.647C170.374 141.748 169.58 136.505 166.973 136.505C165.3 136.505 163.033 138.772 162.891 140.445C162.806 140.983 162.069 141.04 161.644 141.04C161.333 141.04 161.049 140.983 160.794 140.87C160.539 140.785 160.397 140.643 160.426 140.445C160.652 137.667 164.45 135.23 167.143 135.23C171.876 135.23 172.84 140.898 172.925 144.639ZM164.337 150.846C164.649 151.782 165.3 152.49 166.321 152.49C168.843 152.49 170.204 149.769 170.289 147.559C170.289 146.85 170.09 146.085 169.665 145.319C169.268 144.554 168.645 144.157 167.795 144.157C165.952 144.157 164.875 146.567 164.422 148.04C164.11 149.061 164.082 149.996 164.337 150.846ZM184.007 135.116C185.594 135.428 186.104 136.788 186.331 138.234C186.416 138.999 186.472 139.764 186.444 140.558C186.416 141.352 186.387 142.032 186.416 142.57C186.529 146.283 186.586 149.996 186.586 153.709C186.586 154.247 185.707 154.304 185.339 154.304C184.97 154.304 184.12 154.191 184.12 153.709C184.12 149.628 184.063 145.575 183.95 141.522C183.921 140.87 183.893 140.218 183.921 139.538C183.921 138.546 183.751 137.61 183.44 136.703C183.298 136.392 183.1 136.222 182.844 136.193C182.533 136.193 182.193 136.307 181.881 136.562C179.868 138.035 178.763 140.36 178.225 142.74C177.97 144.016 177.828 145.206 177.856 146.368C177.856 148.636 177.941 150.903 178.111 153.17C178.14 153.369 178.026 153.539 177.771 153.624C177.488 153.709 177.204 153.766 176.921 153.766C176.496 153.766 175.759 153.709 175.674 153.17C175.532 151.13 175.447 149.089 175.419 147.048C175.39 146.935 175.39 146.708 175.39 146.34C175.334 142.74 175.419 139.112 175.645 135.513C175.731 134.974 176.467 134.918 176.893 134.918C177.204 134.918 177.488 134.974 177.771 135.06C178.026 135.173 178.14 135.315 178.111 135.513C178.083 135.995 178.055 136.363 178.055 136.618L177.97 137.752C179.188 136.165 181.002 135.003 183.043 135.003C183.44 135.003 183.751 135.031 184.007 135.116Z" fill="#273B09"/>
</g>
<defs>
<filter id="filter0_i_2_2" x="0" y="0" width="226.83" height="219.812" filterUnits="userSpaceOnUse" color-interpolation-filters="sRGB">
<feFlood flood-opacity="0" result="BackgroundImageFix"/>
<feBlend mode="normal" in="SourceGraphic" in2="BackgroundImageFix" result="shape"/>
<feColorMatrix in="SourceAlpha" type="matrix" values="0 0 0 0 0 0 0 0 0 0 0 0 0 0 0 0 0 0 127 0" result="hardAlpha"/>
<feOffset dy="4"/>
<feGaussianBlur stdDeviation="2"/>
<feComposite in2="hardAlpha" operator="arithmetic" k2="-1" k3="1"/>
<feColorMatrix type="matrix" values="0 0 0 0 0 0 0 0 0 0 0 0 0 0 0 0 0 0 0.25 0"/>
<feBlend mode="normal" in2="shape" result="effect1_innerShadow_2_2"/>
</filter>
<clipPath id="clip0_2_2">
<rect width="226.83" height="215.812" fill="white"/>
</clipPath>
</defs>
</svg>
